<?xml version="1.0" standalone="no"?>
<!DOCTYPE svg PUBLIC "-//W3C//DTD SVG 20010904//EN"
 "http://www.w3.org/TR/2001/REC-SVG-20010904/DTD/svg10.dtd">
<svg version="1.0" xmlns="http://www.w3.org/2000/svg"
 width="698.000000pt" height="196.000000pt" viewBox="0 0 698.000000 196.000000"
 preserveAspectRatio="xMidYMid meet">

<g transform="translate(0.000000,196.000000) scale(0.100000,-0.100000)"
fill="#000000" stroke="none">
<path d="M0 980 l0 -980 3490 0 3490 0 0 980 0 980 -3490 0 -3490 0 0 -980z
m1465 619 c-4 -6 3 -13 15 -16 15 -4 19 -10 14 -22 -46 -105 -57 -217 -29
-285 30 -71 91 -122 178 -150 31 -10 18 -25 -29 -32 -104 -15 -184 21 -239
111 -28 45 -30 55 -30 144 0 110 19 161 82 224 36 37 50 46 38 26z m1832 -97
c93 -48 143 -130 151 -248 8 -133 -45 -241 -143 -293 -68 -35 -188 -37 -251
-4 -101 54 -150 153 -142 292 9 140 63 224 170 263 67 23 157 19 215 -10z
m1886 12 c49 -16 110 -75 128 -121 11 -31 5 -39 -36 -47 -27 -5 -32 -2 -50 36
-53 109 -222 102 -285 -12 -22 -39 -25 -57 -25 -140 0 -83 3 -101 25 -140 31
-55 88 -90 148 -90 69 0 132 44 153 108 11 32 13 34 46 29 20 -4 38 -8 41 -11
13 -13 -33 -98 -73 -135 -52 -48 -108 -65 -192 -58 -108 8 -180 68 -217 180
-20 60 -21 168 -1 234 41 138 198 215 338 167z m-1223 -29 l0 -35 -150 0 -150
0 0 -90 0 -90 130 0 130 0 0 -35 0 -35 -130 0 -130 0 0 -130 0 -130 -40 0 -40
0 0 290 0 290 190 0 190 0 0 -35z m520 0 l0 -35 -155 0 -155 0 0 -90 0 -90
136 0 135 0 -3 -32 -3 -33 -132 -3 -133 -3 0 -129 0 -130 -40 0 -40 0 0 290 0
290 195 0 195 0 0 -35z m210 -255 l0 -290 -40 0 -40 0 0 290 0 290 40 0 40 0
0 -290z m1178 253 l3 -33 -171 0 -171 0 3 -86 3 -85 153 0 152 0 0 -39 0 -40
-155 0 -155 0 0 -95 0 -95 175 0 175 0 0 -35 0 -35 -215 0 -215 0 0 290 0 290
208 -2 207 -3 3 -32z m487 27 c150 -34 146 -266 -5 -296 l-31 -7 39 -41 c35
-35 152 -206 152 -221 0 -3 -21 -5 -47 -5 l-48 0 -57 93 c-31 50 -72 106 -90
124 -30 28 -40 32 -103 35 l-70 3 -3 -127 -3 -128 -39 0 -40 0 0 290 0 290
153 0 c83 0 170 -5 192 -10z m-4295 -252 c70 -38 73 -50 37 -138 -64 -156
-219 -289 -554 -477 -109 -62 -138 -74 -155 -66 -19 8 -9 19 103 115 275 235
432 426 480 586 9 32 15 39 21 28 5 -8 35 -30 68 -48z m4385 -398 c-9 -14
-3491 -14 -3500 0 -4 7 582 10 1750 10 1168 0 1754 -3 1750 -10z m-2290 -110
c-18 -20 -18 -21 15 -49 31 -25 34 -34 38 -93 5 -75 -14 -124 -52 -134 -31 -8
-65 11 -76 42 -23 60 -2 194 30 194 6 0 9 3 8 8 -5 20 15 52 34 52 21 0 21 -1
3 -20z m-906 -46 c12 -15 21 -33 21 -40 0 -24 -27 -15 -34 10 -12 47 -76 34
-76 -15 0 -14 13 -26 45 -40 25 -11 52 -31 61 -43 29 -45 -8 -106 -65 -106
-29 0 -71 36 -71 62 0 26 19 22 29 -6 24 -62 107 -31 86 33 -3 10 -26 26 -50
36 -68 26 -83 67 -40 110 32 33 68 32 94 -1z m196 1 c28 -27 33 -55 10 -55 -8
0 -15 6 -15 13 0 8 -8 21 -19 31 -17 15 -20 15 -42 -3 -21 -17 -24 -27 -24
-90 0 -58 4 -74 21 -91 25 -26 49 -18 63 21 11 32 31 39 31 10 0 -28 -39 -71
-65 -71 -56 0 -93 77 -79 168 8 51 41 92 74 92 12 0 32 -11 45 -25z m1259 -8
c17 -22 21 -43 21 -97 0 -78 -23 -123 -67 -128 -52 -6 -89 88 -69 177 18 82
73 105 115 48z m195 7 c24 -31 27 -54 7 -54 -8 0 -17 12 -20 26 -6 21 -11 25
-39 22 -25 -2 -33 -8 -35 -26 -4 -30 12 -49 48 -57 89 -19 81 -145 -9 -145
-32 0 -71 33 -71 60 0 28 19 25 30 -4 12 -33 46 -43 71 -20 36 33 19 67 -49
94 -54 21 -66 60 -31 104 13 17 30 26 49 26 19 0 36 -9 49 -26z m1241 -16 c7
-24 20 -74 31 -113 22 -79 23 -95 9 -95 -5 0 -13 15 -18 33 -7 28 -13 32 -44
35 -34 3 -36 1 -42 -32 -4 -21 -13 -36 -21 -36 -10 0 -7 25 16 113 16 61 31
118 34 125 9 24 24 11 35 -30z m305 17 c27 -26 33 -55 12 -55 -7 0 -17 10 -22
23 -14 32 -69 32 -73 -1 -4 -30 12 -49 48 -57 88 -19 80 -145 -9 -145 -32 0
-71 33 -71 60 0 28 19 25 30 -4 12 -33 46 -43 71 -20 36 33 19 67 -49 94 -54
21 -66 60 -31 104 26 33 62 34 94 1z m-3375 5 c0 -5 -25 -10 -56 -10 l-55 0 3
-42 3 -43 48 -3 c63 -4 61 -22 -3 -22 l-50 0 0 -45 0 -45 60 0 c33 0 60 -4 60
-10 0 -6 -30 -10 -70 -10 l-70 0 0 120 0 120 65 0 c37 0 65 -4 65 -10z m572
-7 c22 -20 24 -76 3 -93 -10 -8 -12 -17 -6 -24 5 -6 12 -32 16 -58 6 -40 5
-48 -9 -48 -12 0 -16 9 -16 34 0 54 -8 66 -46 66 l-34 0 0 -50 c0 -27 -4 -50
-10 -50 -6 0 -10 47 -10 120 l0 120 47 0 c29 0 53 -6 65 -17z m158 -103 c0
-100 -2 -120 -15 -120 -12 0 -15 20 -15 120 0 100 3 120 15 120 13 0 15 -20
15 -120z m220 110 c0 -5 -13 -10 -30 -10 l-30 0 0 -110 c0 -91 -3 -110 -15
-110 -12 0 -15 19 -15 110 l0 110 -30 0 c-16 0 -30 5 -30 10 0 6 32 10 75 10
43 0 75 -4 75 -10z m362 -7 c22 -19 24 -76 4 -92 -12 -10 -12 -16 0 -39 8 -15
14 -42 14 -60 0 -50 -24 -35 -30 19 -5 43 -6 44 -42 47 l-38 3 0 -50 c0 -28
-4 -51 -10 -51 -6 0 -10 47 -10 120 l0 120 47 0 c29 0 53 -6 65 -17z m128
-103 c0 -73 -4 -120 -10 -120 -6 0 -10 47 -10 120 0 73 4 120 10 120 6 0 10
-47 10 -120z m619 38 c12 -46 25 -90 28 -98 3 -8 17 29 32 83 17 63 30 97 39
97 9 0 12 -7 10 -17 -3 -10 -18 -64 -33 -121 -37 -136 -49 -134 -92 18 -18 63
-32 116 -33 118 0 1 6 2 14 2 9 0 21 -29 35 -82z m241 -38 c0 -100 -2 -120
-15 -120 -12 0 -15 20 -15 120 0 100 3 120 15 120 13 0 15 -20 15 -120z m212
103 c22 -20 24 -76 3 -93 -11 -9 -12 -16 -5 -25 5 -7 13 -33 16 -59 6 -38 4
-46 -10 -46 -12 0 -16 9 -16 34 0 54 -8 66 -46 66 l-34 0 0 -50 c0 -27 -4 -50
-10 -50 -6 0 -10 47 -10 120 l0 120 47 0 c29 0 53 -6 65 -17z m218 7 c0 -5
-13 -10 -30 -10 l-30 0 0 -110 c0 -89 -3 -110 -14 -110 -12 0 -15 21 -14 108
l0 107 -26 3 c-54 7 -23 22 44 22 40 0 70 -4 70 -10z m80 -89 c0 -101 10 -131
44 -131 31 0 41 33 41 128 1 66 5 97 13 100 9 3 12 -24 12 -102 0 -119 -13
-146 -68 -146 -53 0 -67 29 -70 146 -3 90 -2 104 12 104 14 0 16 -15 16 -99z
m390 -21 c0 -100 -2 -120 -15 -120 -12 0 -15 20 -15 120 0 100 3 120 15 120
13 0 15 -20 15 -120z m-4270 -36 c0 -9 -27 -72 -60 -141 -60 -125 -60 -125
-83 -110 -21 13 -61 36 -217 120 l-35 18 70 -8 c166 -19 227 1 280 92 28 46
45 57 45 29z"/>
<path d="M3111 1447 c-46 -15 -98 -68 -110 -114 -19 -67 -14 -181 10 -231 58
-120 231 -136 313 -30 66 88 55 271 -21 340 -48 43 -123 57 -192 35z"/>
<path d="M6090 1360 l0 -90 109 0 c60 0 121 4 136 10 36 14 58 68 44 109 -17
49 -52 61 -179 61 l-110 0 0 -90z"/>
<path d="M4109 674 c-9 -11 -14 -41 -14 -80 0 -52 4 -67 22 -86 21 -21 23 -21
42 -4 42 38 31 177 -15 184 -11 2 -27 -5 -35 -14z"/>
<path d="M4643 702 c-18 -11 -33 -59 -33 -101 0 -121 76 -149 88 -32 8 91 -19
155 -55 133z"/>
<path d="M6106 637 c-4 -21 -10 -45 -13 -53 -4 -10 2 -14 21 -14 30 0 34 24
12 75 l-13 30 -7 -38z"/>
<path d="M3550 655 c0 -45 0 -45 35 -45 28 0 38 5 44 23 15 40 -5 67 -51 67
-26 0 -28 -3 -28 -45z"/>
<path d="M4290 655 c0 -45 0 -45 35 -45 28 0 38 5 46 24 17 37 -3 66 -46 66
-35 0 -35 0 -35 -45z"/>
<path d="M5490 655 c0 -45 0 -45 35 -45 28 0 38 5 44 23 15 40 -5 67 -51 67
-26 0 -28 -3 -28 -45z"/>
</g>
</svg>
